HIERARCHY
ROOT Hips
{
	OFFSET -3.958830 18.904000 13.208200
	CHANNELS 6 Xposition Yposition Zposition Zrotation Yrotation Xrotation 
	JOINT LHipJoint
	{
		OFFSET 0.000000 0.000000 0.000000
		CHANNELS 3 Zrotation Yrotation Xrotation
		JOINT LeftUpLeg
		{
			OFFSET 1.800000 -1.400000 0.085000
			CHANNELS 3 Zrotation Yrotation Xrotation
			JOINT LeftLeg
			{
				OFFSET 2.215000 -6.000000 0.000000
				CHANNELS 3 Zrotation Yrotation Xrotation
				JOINT LeftFoot
				{
					OFFSET 2.500000 -6.900000 0.000000
					CHANNELS 3 Zrotation Yrotation Xrotation
					JOINT LeftToeBase
					{
						OFFSET 0.200000 -0.500000 1.950000
						CHANNELS 3 Zrotation Yrotation Xrotation
						End Site
						{
							OFFSET 0.000000 0.000000 0.000000
						}
					}
				}
			}
		}
	}
	JOINT RHipJoint
	{
		OFFSET 0.000000 0.000000 0.000000
		CHANNELS 3 Zrotation Yrotation Xrotation
		JOINT RightUpLeg
		{
			OFFSET -1.800000 -1.400000 0.085000
			CHANNELS 3 Zrotation Yrotation Xrotation
			JOINT RightLeg
			{
				OFFSET -2.215000 -6.000000 0.000000
				CHANNELS 3 Zrotation Yrotation Xrotation
				JOINT RightFoot
				{
					OFFSET -2.500000 -6.900000 0.000000
					CHANNELS 3 Zrotation Yrotation Xrotation
					JOINT RightToeBase
					{
						OFFSET -0.200000 -0.500000 1.950000
						CHANNELS 3 Zrotation Yrotation Xrotation
						End Site
						{
							OFFSET 0.000000 0.000000 0.000000
						}
					}
				}
			}
		}
	}
	JOINT LowerBack
	{
		OFFSET 0.000000 0.000000 0.000000
		CHANNELS 3 Zrotation Yrotation Xrotation
		JOINT Spine
		{
			OFFSET -0.087000 1.940000 -0.288900
			CHANNELS 3 Zrotation Yrotation Xrotation
			JOINT Spine1
			{
				OFFSET 0.000000 1.950000 0.060000
				CHANNELS 3 Zrotation Yrotation Xrotation
				JOINT Neck
				{
					OFFSET 0.000000 0.000000 0.000000
					CHANNELS 3 Zrotation Yrotation Xrotation
					JOINT Neck1
					{
						OFFSET 0.000000 1.600000 0.340000
						CHANNELS 3 Zrotation Yrotation Xrotation
						JOINT Head
						{
							OFFSET 0.000000 1.667000 -0.240000
							CHANNELS 3 Zrotation Yrotation Xrotation
							End Site
							{
								OFFSET 0.000000 0.000000 0.000000
							}
						}
					}
				}
				JOINT LeftShoulder
				{
					OFFSET 0.000000 0.000000 0.000000
					CHANNELS 3 Zrotation Yrotation Xrotation
					JOINT LeftArm
					{
						OFFSET 2.700000 1.550000 -0.730000
						CHANNELS 3 Zrotation Yrotation Xrotation
						JOINT LeftForeArm
						{
							OFFSET 5.450000 0.000000 0.000000
							CHANNELS 3 Zrotation Yrotation Xrotation
							JOINT LeftHand
							{
								OFFSET 3.450000 0.000000 0.000000
								CHANNELS 3 Zrotation Yrotation Xrotation
								JOINT LeftHandIndex1
								{
									OFFSET 0.750000 0.000000 0.000000
									CHANNELS 3 Zrotation Yrotation Xrotation
									End Site
									{
										OFFSET 0.000000 0.000000 0.000000
									}
								}
							}
						}
					}
				}
				JOINT RightShoulder
				{
					OFFSET 0.000000 0.000000 0.000000
					CHANNELS 3 Zrotation Yrotation Xrotation
					JOINT RightArm
					{
						OFFSET -2.700000 1.550000 -0.730000
						CHANNELS 3 Zrotation Yrotation Xrotation
						JOINT RightForeArm
						{
							OFFSET -5.450000 0.000000 0.000000
							CHANNELS 3 Zrotation Yrotation Xrotation
							JOINT RightHand
							{
								OFFSET -3.450000 0.000000 0.000000
								CHANNELS 3 Zrotation Yrotation Xrotation
								JOINT RightHandIndex1
								{
									OFFSET -0.750000 0.000000 0.000000
									CHANNELS 3 Zrotation Yrotation Xrotation
									End Site
									{
										OFFSET 0.000000 0.000000 0.000000
									}
								}
							}
						}
					}
				}
			}
		}
	}
}
MOTION
Frames: 12
Frame Time: 0.016667
0.463910 16.383960 -2.637370 -8.851946 -24.069703 15.604184 -15.550433 13.608889 2.811558 1.409234 0.443344 7.758567 -7.055108 6.824492 10.199582 0.064251 5.453132 3.077219 0.670240 0.193430 0.353950 18.296191 -7.507012 5.135772 25.143173 12.374998 -42.437008 -0.342178 -1.367443 8.360191 0.124136 -0.368150 4.599986 0.033180 0.267680 0.125900 -3.118509 -6.285196 -8.218636 6.864108 -14.674657 25.080386 -2.416195 -12.884659 -10.999089 1.660186 -11.843981 -11.263178 -27.786594 20.616319 13.850933 3.868070 11.470750 -15.728990 -15.572534 2.172768 2.380482 -38.317832 3.495500 -5.785928 18.198487 -25.885668 -4.563811 -3.389608 2.976219 0.776890 -0.036540 -0.063870 0.426340 16.113710 0.279962 6.321585 44.153832 -19.446587 -15.556140 38.749356 48.285607 12.199707 1.722346 -1.815614 -0.204390 0.262510 -0.206540 -0.245120 
0.463280 16.363270 -2.518150 -8.602015 -25.647903 15.813929 -15.450291 13.695288 2.811104 0.228978 0.370781 5.341392 -7.575724 7.490196 15.258385 0.141021 5.524382 3.037568 0.585930 0.056350 0.345530 18.315991 -7.845369 5.097821 24.315799 11.757211 -40.528765 1.483692 -1.629114 6.637895 0.111221 -0.324569 4.639682 -0.104320 0.192770 0.112100 -3.214012 -5.853607 -8.265444 7.135530 -14.141818 28.779279 -4.082126 -11.846324 -17.846433 3.513283 -11.833987 -9.752881 -27.701183 19.414279 17.135080 2.004010 11.399780 -17.404890 -16.568983 7.611783 -0.527732 -37.222243 3.911666 -5.035881 12.978179 -21.892459 -2.630936 -3.383097 2.903203 0.848450 -0.119080 -0.024510 0.387620 13.599464 -4.834623 5.560723 47.591287 -21.757019 -16.541728 32.414252 46.578474 10.425446 1.809364 -1.664685 -0.195470 0.212400 -0.193730 -0.264540 
0.439590 16.358110 -2.407300 -8.191082 -27.012347 16.626450 -15.386248 13.679207 2.811389 -0.548979 -0.320531 1.890944 -8.858163 8.469311 20.848311 0.221246 5.843634 2.894327 0.536140 -0.016000 0.331140 18.330344 -8.042277 5.112700 23.230520 11.737848 -40.015163 3.038657 -1.783574 5.883375 0.105439 -0.302830 4.651257 -0.176710 0.143750 0.100570 -3.277421 -5.465628 -8.306961 6.992378 -13.011796 30.859868 -5.098863 -10.500910 -23.331394 4.334897 -12.025335 -7.913133 -28.200963 18.600914 19.177677 1.258030 10.365090 -19.457370 -15.577263 14.170651 -3.567072 -38.729735 2.894277 -4.545128 9.865260 -18.123915 -1.730211 -3.412843 2.816023 0.882670 -0.178720 -0.003770 0.352070 10.984617 -10.835894 4.252188 49.630231 -23.080086 -16.632503 25.867962 44.854601 8.963287 1.863030 -1.541591 -0.182220 0.192440 -0.170420 -0.267730 
0.413540 16.379160 -2.318680 -7.400363 -27.307207 16.897521 -15.351098 13.626285 2.872683 -0.333128 -1.643342 -1.905352 -10.478601 9.861166 26.967986 0.409703 6.465351 2.666323 0.525000 -0.026420 0.322570 18.321722 -8.200132 5.044161 21.374084 11.477982 -39.983453 4.853122 -1.933235 5.267970 0.075982 -0.311093 4.668600 -0.227290 0.096460 0.095890 -3.278553 -5.151396 -8.369774 5.595955 -12.218988 33.006751 -5.647472 -9.800086 -26.271283 5.154486 -11.883396 -6.959042 -27.286588 17.909374 20.725719 0.374560 10.241900 -21.659840 -14.806065 17.900328 -4.973155 -40.408046 3.959133 -5.303740 9.408118 -17.257219 -1.496741 -3.363938 2.790929 0.907280 -0.231750 0.038320 0.370770 8.583102 -14.100412 3.522745 52.974134 -23.699891 -18.070964 18.472146 42.841453 6.847460 1.929036 -1.418911 -0.155220 0.162000 -0.207100 -0.250820 
0.401310 16.389560 -2.228190 -5.722760 -22.937179 16.196022 -15.333399 13.580881 3.017849 1.621994 -4.286297 -5.922819 -10.936002 11.459925 35.573769 0.636850 7.685477 2.217691 0.512380 -0.046090 0.322140 18.293629 -8.312693 4.800837 16.908696 10.446651 -41.436526 7.529865 -2.083125 4.571604 0.073990 -0.372055 4.645731 -0.249260 0.071870 0.087250 -3.252270 -5.097150 -8.376808 5.450653 -13.215000 34.134684 -6.019443 -10.426998 -26.334975 5.403022 -11.808658 -6.306363 -26.446302 16.418193 21.335738 0.596750 9.008530 -21.941910 -14.743044 18.960220 -5.465686 -43.138487 4.484468 -6.389446 10.046552 -17.087749 -1.686878 -3.357628 2.786942 0.903000 -0.246800 0.033870 0.356850 7.686855 -15.204979 3.088407 55.777753 -24.548078 -20.351265 9.645453 41.055751 4.202546 1.947634 -1.330527 -0.145200 0.137200 -0.210170 -0.255290 
0.403730 16.413450 -2.177630 -5.445243 -20.845220 16.245292 -15.389720 13.243980 3.372809 3.819222 -7.170869 -11.897343 -12.790157 13.938902 43.696538 0.871725 9.276978 1.657792 0.496560 -0.078490 0.336890 18.261902 -8.182147 4.621604 14.811706 10.157942 -41.403656 9.042196 -2.100421 3.707822 0.075147 -0.449156 4.619990 -0.239810 0.088970 0.070110 -3.184187 -5.037092 -8.548104 5.283292 -12.740484 34.743243 -5.842335 -9.540369 -24.841219 5.055431 -11.686562 -5.540068 -25.509614 15.303888 21.822429 0.731780 8.043100 -22.041340 -16.016697 18.953777 -5.818218 -45.898311 5.334561 -7.857311 11.834992 -18.709806 -2.246010 -3.387872 2.729096 0.917520 -0.228620 0.008520 0.334080 9.009307 -14.804081 2.594139 56.720630 -24.439695 -21.709495 0.991865 38.709322 1.715071 1.942617 -1.236440 -0.187710 0.172500 -0.183180 -0.286340 
0.414010 16.439580 -2.145700 -5.239294 -19.688779 16.745965 -15.522438 12.729161 4.005988 6.520444 -10.024607 -19.291244 -15.836030 17.557973 51.110106 1.222909 11.144813 1.038651 0.461200 -0.152720 0.350210 18.201617 -7.848542 4.431946 13.077439 10.152088 -41.491628 10.315778 -2.084592 2.903150 0.082281 -0.522315 4.577511 -0.265420 0.104330 0.089360 -3.004402 -5.134000 -8.845146 4.426082 -11.576937 35.217516 -4.904112 -8.113708 -23.368690 5.080116 -11.513416 -5.229795 -24.660738 14.190462 22.206775 0.022500 7.358030 -21.081730 -15.445611 19.672632 -5.891362 -50.580315 6.450495 -9.805651 14.248841 -22.004720 -3.139130 -3.427575 2.700535 0.922780 -0.200440 -0.019940 0.293480 8.103973 -14.667515 2.325332 57.478248 -23.677399 -22.033579 -3.435866 35.514693 0.667932 1.969268 -1.173665 -0.209000 0.162870 -0.137360 -0.319040 
0.424890 16.426550 -2.112890 -5.325165 -18.682533 17.712508 -15.644761 12.018033 4.743620 9.991000 -12.327193 -27.304559 -18.978902 21.838849 57.696012 1.583420 13.015586 0.485175 0.459490 -0.146650 0.354950 18.193557 -7.502129 4.229232 11.666472 10.276408 -41.602922 11.492846 -1.976463 1.813900 0.097252 -0.604647 4.565037 -0.220800 0.148550 0.061170 -2.942725 -4.956967 -9.140622 4.718145 -10.583932 34.240594 -4.532087 -6.813663 -20.965174 4.501256 -11.332520 -4.755081 -23.443877 13.278339 21.587157 0.094040 6.575840 -20.187690 -14.261237 20.457985 -5.850762 -54.376309 7.086714 -11.501568 15.315370 -24.485474 -3.824832 -3.468318 2.632871 0.906520 -0.153470 -0.061580 0.290510 7.467912 -14.731158 1.733783 57.162996 -22.736818 -21.726017 -7.752294 31.871317 -0.274151 1.981997 -1.134724 -0.257880 0.219980 -0.121830 -0.336810 
0.429100 16.421750 -2.075550 -5.923788 -18.620727 18.422913 -15.739895 11.375333 5.392077 13.953709 -13.120292 -33.942908 -22.329132 26.095976 61.496913 1.909816 14.417149 0.077480 0.453770 -0.133830 0.335720 18.203279 -7.245449 4.063717 11.354302 10.501713 -40.773819 12.139657 -1.834004 0.488405 0.093931 -0.682197 4.533330 -0.206240 0.155150 0.088570 -2.930088 -4.654788 -9.419602 4.942336 -9.386703 33.541192 -4.495652 -5.399654 -18.882429 4.230892 -10.712957 -4.811646 -21.563098 12.611387 22.077793 0.071410 6.553770 -19.357020 -13.665924 19.863014 -5.148977 -56.278363 8.587359 -13.437355 17.911180 -29.282770 -5.010788 -3.467940 2.668285 0.880610 -0.116350 -0.068420 0.280020 6.969568 -13.748726 1.433381 57.621661 -21.304479 -21.053278 -13.879660 26.299804 -1.101611 2.057169 -1.128599 -0.244740 0.194010 -0.102440 -0.339000 
0.437710 16.431650 -2.037580 -6.218687 -18.693232 17.570930 -15.794484 10.931620 5.898377 17.264944 -13.082503 -38.049013 -25.425446 29.946821 63.712249 2.136797 15.461724 -0.205857 0.426660 -0.174370 0.359000 18.209735 -7.165578 3.875877 10.842745 10.279349 -38.986135 12.156745 -1.842896 0.085341 0.088487 -0.739319 4.509435 -0.219990 0.151620 0.090590 -2.923745 -4.312058 -9.635295 4.608551 -8.152581 34.558085 -4.923560 -4.047400 -17.636887 4.287422 -9.928168 -4.837310 -19.886376 11.771729 24.077025 -0.085240 6.498210 -19.665430 -13.727663 19.380550 -4.835893 -55.865825 9.872780 -14.872878 20.752132 -35.334245 -6.626961 -3.452526 2.637333 0.904320 -0.102640 -0.072520 0.231410 6.538595 -13.205988 1.535670 56.959206 -21.095242 -20.625956 -15.298741 23.317303 -1.056508 2.081422 -1.082416 -0.266840 0.204280 -0.062840 -0.376530 
0.440840 16.446050 -1.997060 -6.312150 -18.508305 16.089423 -15.856488 10.583614 6.360877 20.491287 -12.683958 -41.429928 -28.241390 33.543266 65.376481 2.365332 16.216970 -0.393051 0.482720 -0.092740 0.373370 18.205265 -7.087556 3.675286 10.177437 9.966022 -37.114764 12.185692 -1.933169 0.523550 0.049958 -0.829626 4.475854 -0.178200 0.113980 0.095410 -2.875141 -4.106475 -9.796261 3.959416 -7.030690 36.015253 -4.520974 -2.740032 -16.690559 4.100972 -9.695168 -5.049290 -19.525253 11.244223 25.096368 0.556360 5.973030 -20.009990 -13.444565 19.177405 -4.435613 -55.377817 10.750957 -15.739389 24.371144 -41.221563 -8.663180 -3.354050 2.687033 0.904720 -0.119370 -0.042390 0.256270 6.455487 -12.502518 1.955956 54.133296 -21.695527 -19.812795 -14.231968 23.323625 -0.856947 2.070560 -1.134838 -0.239640 0.184960 -0.102910 -0.369820 
0.442160 16.466910 -1.959970 -6.638948 -19.022386 14.088780 -15.904378 10.330101 6.723797 23.251713 -11.712681 -43.511638 -30.696061 36.646232 66.159239 2.524303 16.702503 -0.499436 0.499360 -0.044810 0.393240 18.200277 -7.090108 3.490721 10.204303 9.642104 -34.627507 11.827395 -2.157346 1.620969 0.016097 -0.906477 4.465169 -0.164880 0.102350 0.092310 -2.837749 -3.858132 -9.924246 3.271325 -5.434658 37.802905 -4.475494 -1.009250 -15.817428 4.050199 -9.137117 -5.138298 -18.655319 10.321746 26.927872 0.603300 5.656520 -21.222330 -13.194267 18.885193 -4.259441 -53.688749 10.909029 -15.847194 28.606837 -46.255654 -11.190756 -3.312160 2.647455 0.908100 -0.118770 -0.013630 0.251480 6.057883 -11.881483 2.210081 51.457698 -21.728010 -18.394344 -14.376554 19.377009 -0.533213 2.123151 -1.090774 -0.224900 0.209920 -0.111480 -0.368630 
